<svg xmlns="http://www.w3.org/2000/svg" data-name="Layer 1" viewBox="0 0 128 160" x="0px" y="0px"><title>business elements final</title><path d="M127.93909,86.148a1.993,1.993,0,0,0-1.99512-1.99072h-3.03583a23.64785,23.64785,0,0,1,1.95526,3.98145H125.944A1.993,1.993,0,0,0,127.93909,86.148Z"/><path d="M43.02045,65.73981a1.99515,1.99515,0,0,0-3.9903,0v1.99072a1.99515,1.99515,0,0,0,3.9903,0Z"/><path d="M41.02533,73.70264a1.99307,1.99307,0,0,0-1.99518,1.99072v1.99072a1.99515,1.99515,0,0,0,3.9903,0V75.69336A1.993,1.993,0,0,0,41.02533,73.70264Z"/><path d="M41.02533,10a18.89758,18.89758,0,0,0-18.954,18.79736V37.5788c0,14.5672,9.5351,22.1889,18.954,22.1889S59.97925,52.146,59.97925,37.5788V28.79736A18.89752,18.89752,0,0,0,41.02533,10ZM55.989,37.5788c0,12.13837-7.48181,18.20752-14.96362,18.20752S26.06165,49.71716,26.06165,37.5788V29.11346c3.16809,2.4231,6.34412,3.35645,9.47211,2.77264a12.638,12.638,0,0,0,7.07269-4.44116c2.19678,3.77582,6.28937,7.94,12.42291,7.93951.31378,0,.63525-.01642.95959-.0387Zm0-6.20544c-.05383.00006-.10614-.00745-.16077-.00287-7.8432.63031-10.84473-8.16943-10.96552-8.53925a1.999,1.999,0,0,0-3.67859-.2926c-.02338.04712-2.45886,4.71191-6.4024,5.4375-2.27277.41748-4.754-.56812-7.38538-2.93066a1.97786,1.97786,0,0,0-.72473-.412A14.97833,14.97833,0,0,1,55.989,28.79736Z"/><path d="M79.32776,28.41742a1.9907,1.9907,0,1,0,0-3.98138H78.20544a1.9907,1.9907,0,1,0,0,3.98138Z"/><path d="M88.30591,28.41742a1.9907,1.9907,0,1,0,0-3.98138H87.18365a1.9907,1.9907,0,1,0,0,3.98138Z"/><path d="M57.98041,55.76245a16.40342,16.40342,0,0,1,5.9917,1.81238,22.65666,22.65666,0,0,1,.41321-4.20374,20.38324,20.38324,0,0,0-3.90869-1.24121A23.54491,23.54491,0,0,1,57.98041,55.76245Z"/><path d="M65.31207,38.07233a3.97965,3.97965,0,0,0,1.64362,7.48376c.04987.003.2395.01257.52692.02045a22.97352,22.97352,0,0,1,3.27051-4.06287c-.99622.07111-1.846.09247-2.45978.09247-.695,0-1.097-.02423-1.097-.02423,2.92151-1.56165,5.71411-5.1778,7.54333-7.93158a11.6483,11.6483,0,1,1,16.24579,1.60016,22.859,22.859,0,0,1,4.409,1.25385,15.62048,15.62048,0,1,0-25.4917-2.92371A16.63929,16.63929,0,0,1,65.31207,38.07233Z"/><path d="M1.99518,100.33179H45.78809l1.0556-3.98138H1.99518a1.9907,1.9907,0,1,0,0,3.98138Z"/><path d="M1.95917,88.13873H48.08A23.83085,23.83085,0,0,1,50,84.15729H8.68591l.6687-13.88538a2.07621,2.07621,0,0,0,.05359-.296A15.94058,15.94058,0,0,1,23.63562,55.76245a23.56679,23.56679,0,0,1-2.45123-3.63257A19.88727,19.88727,0,0,0,5.52917,69.39612L4.62524,84.186c-.11768.01721-2.551-.00452-2.74042.03278C.54742,84.482,0,85.27026,0,86.148A1.97522,1.97522,0,0,0,1.95917,88.13873Z"/><path d="M57.37677,77.18982a24.3552,24.3552,0,0,1,5.45966-2.95563,1.98714,1.98714,0,0,0-1.73492-1.02582H53.99377a1.99073,1.99073,0,1,0,0,3.98145Z"/><path d="M86.91382,38.86523a18.89763,18.89763,0,0,0-18.954,18.79742v8.78143a28.88748,28.88748,0,0,0,.69763,6.35284,24.52525,24.52525,0,0,1,2.98779-.20386h1.0365a24.76839,24.76839,0,0,1-.73163-6.149V59.267a31.53663,31.53663,0,0,0,20.05951,6.47278c2.85413,0,5.62683-.24567,8.29639-.48224.52484-.04663,1.04785-.08966,1.57141-.13422v1.32074a24.76839,24.76839,0,0,1-.73163,6.149h1.03656a24.52608,24.52608,0,0,1,2.98779.20386,28.88759,28.88759,0,0,0,.69757-6.35284V57.66266A18.89758,18.89758,0,0,0,86.91382,38.86523Zm14.96362,22.101q-.97449.08148-1.951.16687c-9.2196.81787-17.92554,1.58978-27.44324-6.80627-.03656-.03223-.07831-.05438-.11646-.08362a14.97239,14.97239,0,0,1,29.51068,3.41943Z"/><path d="M102.18237,76.57452H71.64526A20.11528,20.11528,0,0,0,51.51935,94.28l-5.625,21.21979a1.99489,1.99489,0,0,0,3.85779,1.0177l5.663-21.36169a2.04577,2.04577,0,0,0,.05457-.296A16.13239,16.13239,0,0,1,71.64526,80.55591h30.53711A16.13239,16.13239,0,0,1,118.35791,94.8598a2.0375,2.0375,0,0,0,.05457.296l5.663,21.36169a1.99492,1.99492,0,0,0,3.85785-1.0177L122.30829,94.28A20.11537,20.11537,0,0,0,102.18237,76.57452Z"/><text x="0" y="143" fill="#000000" font-size="5px" font-weight="bold" font-family="'Helvetica Neue', Helvetica, Arial-Unicode, Arial, Sans-serif">Created by priyanka</text><text x="0" y="148" fill="#000000" font-size="5px" font-weight="bold" font-family="'Helvetica Neue', Helvetica, Arial-Unicode, Arial, Sans-serif">from the Noun Project</text></svg>