<svg width="24" height="24" viewBox="0 0 24 24" fill="none" xmlns="http://www.w3.org/2000/svg">
<path d="M5.242 13.769L0 9.5L12 0L24 9.5L18.758 13.769C17.548 11.249 14.978 9.5 12 9.5C9.023 9.5 6.452 11.248 5.242 13.769ZM12 10C10.1435 10 8.36301 10.7375 7.05025 12.0503C5.7375 13.363 5 15.1435 5 17C5 18.8565 5.7375 20.637 7.05025 21.9497C8.36301 23.2625 10.1435 24 12 24C13.8565 24 15.637 23.2625 16.9497 21.9497C18.2625 20.637 19 18.8565 19 17C19 15.1435 18.2625 13.363 16.9497 12.0503C15.637 10.7375 13.8565 10 12 10Z" fill="white"/>
</svg>
